# xmcd
#
# Track frame offsets:
#	150
#	16832
#	33687
#	52675
#	71380
#	90292
#	112045
#	135607
#	162110
#	183182
#	222080
#	244845
#
# Disc length: 3489 seconds
#
# Revision: 8
# Processed by: cddbd v1.5.2PL0 Copyright (c) Steve Scherf et al.
# Submitted via: EasyCDDAExtractor 15.3.0.1
#
DISCID=920d9f0c
DTITLE=Selena - The Original Motion Picture Soundtrack
DYEAR=1997
DGENRE=Pop
TTITLE0=Disco Medley Part I (I Will Survive, Funky Town)
TTITLE1=Where Did The Feeling Go
TTITLE2=Disco Medley Part II (Last Dance, The Hustle, On The Radio)
TTITLE3=Is It The Beat
TTITLE4=Only Love
TTITLE5=Oldies Medley (Blue Moon, We Belong Together)
TTITLE6=Dreaming Of You
TTITLE7=A Boy Like That
TTITLE8=I Could Fall In Love
TTITLE9=Cumbia Medley (Como La Flor, La Carcacha, Bidi Bidi Bom Bom, Baila Est
TTITLE9=a Cumbia)
TTITLE10=Viviras Selena
TTITLE11=One More Time
EXTD=
EXTT0=
EXTT1=
EXTT2=
EXTT3=
EXTT4=
EXTT5=
EXTT6=
EXTT7=
EXTT8=
EXTT9=
EXTT10=
EXTT11=
PLAYORDER=
